<svg width="120" height="120" viewBox="0 0 120 120" fill="none" xmlns="http://www.w3.org/2000/svg">
<g clip-path="url(#clip0_2_608)">
<path fill-rule="evenodd" clip-rule="evenodd" d="M94 120H26C22.5837 120.007 19.1997 119.339 16.0422 118.035C12.8846 116.731 10.0157 114.816 7.59999 112.4C5.18431 109.984 3.26943 107.115 1.96522 103.958C0.661017 100.8 -0.00683463 97.4163 -9.24321e-06 94V26C-0.00683463 22.5837 0.661017 19.1997 1.96522 16.0422C3.26943 12.8846 5.18431 10.0157 7.59999 7.6C10.0157 5.18432 12.8846 3.26943 16.0422 1.96523C19.1997 0.661024 22.5837 -0.006827 26 -1.61382e-06H94C97.4163 -0.006827 100.8 0.661024 103.958 1.96523C107.115 3.26943 109.984 5.18432 112.4 7.6C114.816 10.0157 116.731 12.8846 118.035 16.0422C119.339 19.1997 120.007 22.5837 120 26V94C120.007 97.4163 119.339 100.8 118.035 103.958C116.731 107.115 114.816 109.984 112.4 112.4C109.984 114.816 107.115 116.731 103.958 118.035C100.8 119.339 97.4163 120.007 94 120Z" fill="white"/>
<path fill-rule="evenodd" clip-rule="evenodd" d="M23.6792 44.1475H40.7359C44.9898 44.1599 49.0658 45.8553 52.0737 48.8632C55.0816 51.8711 56.7769 55.9471 56.7894 60.2009C56.7769 64.4547 55.0816 68.5308 52.0737 71.5387C49.0658 74.5466 44.9897 76.2419 40.7359 76.2544H23.6792C19.4254 76.2419 15.3493 74.5466 12.3414 71.5387C9.33352 68.5308 7.63818 64.4547 7.62573 60.2009C7.63818 55.9471 9.33351 51.8711 12.3414 48.8632C15.3493 45.8553 19.4254 44.1599 23.6792 44.1475Z" fill="url(#paint0_linear_2_608)" fill-opacity="0.25"/>
<path fill-rule="evenodd" clip-rule="evenodd" d="M78.8628 44.1475H95.9196C100.173 44.1599 104.249 45.8553 107.257 48.8632C110.265 51.8711 111.961 55.9471 111.973 60.2009C111.961 64.4547 110.265 68.5308 107.257 71.5387C104.249 74.5466 100.173 76.2419 95.9196 76.2544H78.8628C74.609 76.2419 70.533 74.5466 67.5251 71.5387C64.5172 68.5308 62.8218 64.4547 62.8094 60.2009C62.8218 55.9471 64.5172 51.8711 67.5251 48.8632C70.533 45.8553 74.609 44.1599 78.8628 44.1475Z" fill="url(#paint1_linear_2_608)" fill-opacity="0.25"/>
<path fill-rule="evenodd" clip-rule="evenodd" d="M43.746 41.1375V24.0808C43.7584 19.827 45.4537 15.7509 48.4616 12.743C51.4695 9.73511 55.5456 8.03978 59.7994 8.02733C64.0532 8.03976 68.1292 9.73509 71.1371 12.743C74.145 15.7509 75.8404 19.8269 75.8528 24.0808V41.1375C75.8404 45.3913 74.145 49.4674 71.1371 52.4753C68.1292 55.4832 64.0532 57.1786 59.7994 57.191C55.5455 57.1785 51.4695 55.4832 48.4616 52.4752C45.4537 49.4673 43.7584 45.3913 43.746 41.1375Z" fill="url(#paint2_linear_2_608)" fill-opacity="0.25"/>
<path fill-rule="evenodd" clip-rule="evenodd" d="M75.8528 79.2644V96.3211C75.8403 100.575 74.145 104.651 71.1371 107.659C68.1292 110.667 64.0532 112.362 59.7994 112.375C55.5456 112.362 51.4695 110.667 48.4616 107.659C45.4537 104.651 43.7584 100.575 43.746 96.3211V79.2644C43.7584 75.0106 45.4537 70.9346 48.4616 67.9266C51.4695 64.9187 55.5456 63.2234 59.7994 63.2109C64.0532 63.2234 68.1292 64.9187 71.1371 67.9266C74.145 70.9345 75.8403 75.0106 75.8528 79.2644Z" fill="url(#paint3_linear_2_608)" fill-opacity="0.25"/>
<path fill-rule="evenodd" clip-rule="evenodd" d="M34.9165 57.9936L22.8764 45.9535C19.8877 42.9369 18.2109 38.8622 18.2109 34.6158C18.2109 30.3693 19.8877 26.2946 22.8764 23.278C25.893 20.2893 29.9677 18.6125 34.2142 18.6125C38.4607 18.6125 42.5354 20.2893 45.552 23.278L57.5921 35.3181C60.5808 38.3347 62.2576 42.4094 62.2576 46.6558C62.2576 50.9023 60.5808 54.977 57.5921 57.9936C56.1227 59.5168 54.3614 60.7282 52.4134 61.5557C50.4654 62.3831 48.3707 62.8096 46.2543 62.8096C44.1379 62.8096 42.0431 62.3831 40.0952 61.5557C38.1472 60.7282 36.3859 59.5168 34.9165 57.9936Z" fill="url(#paint4_linear_2_608)" fill-opacity="0.25"/>
<path fill-rule="evenodd" clip-rule="evenodd" d="M84.6823 62.4083L96.7223 74.4484C99.7111 77.4649 101.388 81.5396 101.388 85.7861C101.388 90.0325 99.7111 94.1072 96.7223 97.1238C93.7057 100.113 89.631 101.789 85.3845 101.789C81.1381 101.789 77.0633 100.113 74.0468 97.1238L62.0067 85.0837C59.0179 82.0672 57.3412 77.9925 57.3412 73.746C57.3412 69.4995 59.0179 65.4249 62.0067 62.4083C63.4761 60.885 65.2373 59.6735 67.1853 58.846C69.1333 58.0185 71.228 57.5921 73.3445 57.5921C75.4609 57.5921 77.5557 58.0185 79.5036 58.846C81.4516 59.6735 83.2129 60.885 84.6823 62.4083Z" fill="url(#paint5_linear_2_608)" fill-opacity="0.25"/>
<path fill-rule="evenodd" clip-rule="evenodd" d="M62.0067 35.3181L74.0468 23.278C77.0634 20.2893 81.1381 18.6125 85.3846 18.6125C89.631 18.6125 93.7057 20.2893 96.7223 23.278C99.7111 26.2946 101.388 30.3693 101.388 34.6157C101.388 38.8622 99.7111 42.9369 96.7223 45.9535L84.6823 57.9936C81.6657 60.9823 77.591 62.6591 73.3445 62.6591C69.098 62.6591 65.0233 60.9823 62.0067 57.9936C60.4835 56.5242 59.2721 54.7629 58.4446 52.8149C57.6172 50.867 57.1907 48.7723 57.1907 46.6558C57.1907 44.5394 57.6172 42.4447 58.4446 40.4968C59.2721 38.5488 60.4835 36.7875 62.0067 35.3181Z" fill="url(#paint6_linear_2_608)" fill-opacity="0.25"/>
<path fill-rule="evenodd" clip-rule="evenodd" d="M57.5921 85.0837L45.552 97.1238C42.5354 100.113 38.4607 101.789 34.2142 101.789C29.9677 101.789 25.893 100.113 22.8764 97.1238C19.8877 94.1072 18.2109 90.0325 18.2109 85.7861C18.2109 81.5396 19.8877 77.4649 22.8764 74.4484L34.9165 62.4083C37.9331 59.4195 42.0078 57.7428 46.2543 57.7428C50.5008 57.7428 54.5755 59.4195 57.5921 62.4083C59.1153 63.8777 60.3268 65.6389 61.1543 67.5869C61.9818 69.5349 62.4082 71.6296 62.4082 73.746C62.4082 75.8624 61.9818 77.9572 61.1543 79.9051C60.3268 81.8531 59.1153 83.6144 57.5921 85.0837Z" fill="url(#paint7_linear_2_608)" fill-opacity="0.25"/>
<g style="mix-blend-mode:multiply">
<path fill-rule="evenodd" clip-rule="evenodd" d="M23.6792 44.1475H40.7359C44.9898 44.1599 49.0658 45.8553 52.0737 48.8632C55.0816 51.8711 56.7769 55.9471 56.7894 60.2009C56.7769 64.4547 55.0816 68.5308 52.0737 71.5387C49.0658 74.5466 44.9897 76.2419 40.7359 76.2544H23.6792C19.4254 76.2419 15.3493 74.5466 12.3414 71.5387C9.33352 68.5308 7.63818 64.4547 7.62573 60.2009C7.63818 55.9471 9.33351 51.8711 12.3414 48.8632C15.3493 45.8553 19.4254 44.1599 23.6792 44.1475Z" fill="#D783A6"/>
</g>
<g style="mix-blend-mode:multiply">
<path fill-rule="evenodd" clip-rule="evenodd" d="M78.8628 44.1475H95.9196C100.173 44.1599 104.249 45.8553 107.257 48.8632C110.265 51.8711 111.961 55.9471 111.973 60.2009C111.961 64.4547 110.265 68.5308 107.257 71.5387C104.249 74.5466 100.173 76.2419 95.9196 76.2544H78.8628C74.609 76.2419 70.533 74.5466 67.5251 71.5387C64.5172 68.5308 62.8218 64.4547 62.8094 60.2009C62.8218 55.9471 64.5172 51.8711 67.5251 48.8632C70.533 45.8553 74.609 44.1599 78.8628 44.1475Z" fill="#A3D063"/>
</g>
<g style="mix-blend-mode:multiply">
<path fill-rule="evenodd" clip-rule="evenodd" d="M75.8528 24.0808V41.1375C75.8404 45.3913 74.145 49.4674 71.1371 52.4753C68.1292 55.4832 64.0532 57.1786 59.7994 57.191C55.5455 57.1785 51.4695 55.4832 48.4616 52.4753C45.4537 49.4674 43.7584 45.3913 43.746 41.1375V24.0808C43.7584 19.827 45.4537 15.7509 48.4616 12.743C51.4695 9.73511 55.5456 8.03978 59.7994 8.02733C64.0532 8.03976 68.1292 9.73509 71.1371 12.743C74.145 15.7509 75.8404 19.8269 75.8528 24.0808Z" fill="#FBB230"/>
</g>
<g style="mix-blend-mode:multiply">
<path fill-rule="evenodd" clip-rule="evenodd" d="M75.8528 79.2644V96.3211C75.8403 100.575 74.145 104.651 71.1371 107.659C68.1292 110.667 64.0532 112.362 59.7994 112.375C55.5456 112.362 51.4695 110.667 48.4616 107.659C45.4537 104.651 43.7584 100.575 43.746 96.3211V79.2644C43.7584 75.0106 45.4537 70.9346 48.4616 67.9266C51.4695 64.9187 55.5456 63.2234 59.7994 63.2109C64.0532 63.2234 68.1292 64.9187 71.1371 67.9266C74.145 70.9345 75.8403 75.0106 75.8528 79.2644Z" fill="#79ABDB"/>
</g>
<g style="mix-blend-mode:multiply">
<path fill-rule="evenodd" clip-rule="evenodd" d="M45.552 23.278L57.5921 35.3181C60.5808 38.3347 62.2576 42.4094 62.2576 46.6558C62.2576 50.9023 60.5808 54.977 57.5921 57.9936C54.5755 60.9823 50.5008 62.6591 46.2543 62.6591C42.0078 62.6591 37.9331 60.9823 34.9165 57.9936L22.8764 45.9535C19.8877 42.9369 18.2109 38.8622 18.2109 34.6158C18.2109 30.3693 19.8877 26.2946 22.8764 23.278C25.893 20.2893 29.9677 18.6125 34.2142 18.6125C38.4607 18.6125 42.5354 20.2893 45.552 23.278Z" fill="#F3775E"/>
</g>
<g style="mix-blend-mode:multiply">
<path fill-rule="evenodd" clip-rule="evenodd" d="M84.6823 62.4083L96.7223 74.4484C99.7111 77.4649 101.388 81.5396 101.388 85.7861C101.388 90.0325 99.7111 94.1072 96.7223 97.1238C93.7057 100.113 89.631 101.789 85.3845 101.789C81.1381 101.789 77.0633 100.113 74.0468 97.1238L62.0067 85.0837C59.0179 82.0672 57.3412 77.9925 57.3412 73.746C57.3412 69.4995 59.0179 65.4249 62.0067 62.4083C63.4761 60.885 65.2373 59.6735 67.1853 58.846C69.1333 58.0185 71.228 57.5921 73.3445 57.5921C75.4609 57.5921 77.5557 58.0185 79.5036 58.846C81.4516 59.6735 83.2129 60.885 84.6823 62.4083Z" fill="#6CBFAA"/>
</g>
<g style="mix-blend-mode:multiply">
<path fill-rule="evenodd" clip-rule="evenodd" d="M96.7223 45.9535L84.6823 57.9936C81.6657 60.9823 77.5909 62.6591 73.3445 62.6591C69.098 62.6591 65.0233 60.9823 62.0067 57.9936C59.0179 54.977 57.3412 50.9023 57.3412 46.6558C57.3412 42.4094 59.0179 38.3347 62.0067 35.3181L74.0468 23.278C77.0634 20.2893 81.1381 18.6125 85.3845 18.6125C89.631 18.6125 93.7057 20.2893 96.7223 23.278C99.7111 26.2946 101.388 30.3693 101.388 34.6157C101.388 38.8622 99.7111 42.9369 96.7223 45.9535Z" fill="#EDE12C"/>
</g>
<g style="mix-blend-mode:multiply">
<path fill-rule="evenodd" clip-rule="evenodd" d="M57.5921 85.0837L45.552 97.1238C42.5354 100.113 38.4607 101.789 34.2142 101.789C29.9677 101.789 25.893 100.113 22.8764 97.1238C19.8877 94.1072 18.2109 90.0325 18.2109 85.7861C18.2109 81.5396 19.8877 77.4649 22.8764 74.4484L34.9165 62.4083C37.9331 59.4195 42.0078 57.7428 46.2543 57.7428C50.5008 57.7428 54.5755 59.4195 57.5921 62.4083C59.1153 63.8777 60.3268 65.6389 61.1543 67.5869C61.9818 69.5349 62.4082 71.6296 62.4082 73.746C62.4082 75.8624 61.9818 77.9572 61.1543 79.9051C60.3268 81.8531 59.1153 83.6144 57.5921 85.0837Z" fill="#AC8DC1"/>
</g>
<g style="mix-blend-mode:overlay">
<path style="mix-blend-mode:overlay" fill-rule="evenodd" clip-rule="evenodd" d="M23.6792 44.1475H40.7359C44.9898 44.1599 49.0658 45.8553 52.0737 48.8632C55.0816 51.8711 56.7769 55.9471 56.7894 60.2009C56.7769 64.4547 55.0816 68.5308 52.0737 71.5387C49.0658 74.5466 44.9898 76.2419 40.7359 76.2544H23.6792C19.4254 76.2419 15.3493 74.5466 12.3414 71.5387C9.3335 68.5308 7.63817 64.4547 7.62573 60.2009C7.63817 55.9471 9.3335 51.8711 12.3414 48.8632C15.3493 45.8553 19.4254 44.1599 23.6792 44.1475Z" fill="url(#paint8_linear_2_608)" fill-opacity="0.25"/>
<path style="mix-blend-mode:overlay" fill-rule="evenodd" clip-rule="evenodd" d="M78.8628 44.1475H95.9196C100.173 44.1599 104.249 45.8553 107.257 48.8632C110.265 51.8711 111.961 55.9471 111.973 60.2009C111.961 64.4547 110.265 68.5308 107.257 71.5387C104.249 74.5466 100.173 76.2419 95.9196 76.2544H78.8628C74.609 76.2419 70.533 74.5466 67.5251 71.5387C64.5172 68.5308 62.8218 64.4547 62.8094 60.2009C62.8218 55.9471 64.5172 51.8711 67.5251 48.8632C70.533 45.8553 74.609 44.1599 78.8628 44.1475Z" fill="url(#paint9_linear_2_608)" fill-opacity="0.25"/>
<path style="mix-blend-mode:overlay" fill-rule="evenodd" clip-rule="evenodd" d="M43.746 41.1375V24.0807C43.7585 19.8269 45.4538 15.7509 48.4617 12.743C51.4696 9.73505 55.5456 8.03971 59.7994 8.02727C64.0532 8.0397 68.1293 9.73503 71.1372 12.7429C74.1451 15.7509 75.8404 19.8269 75.8528 24.0807V41.1375C75.8404 45.3913 74.1451 49.4673 71.1372 52.4752C68.1293 55.4831 64.0532 57.1785 59.7994 57.1909C55.5456 57.1785 51.4696 55.4831 48.4617 52.4752C45.4538 49.4673 43.7585 45.3913 43.746 41.1375Z" fill="url(#paint10_linear_2_608)" fill-opacity="0.25"/>
<path style="mix-blend-mode:overlay" fill-rule="evenodd" clip-rule="evenodd" d="M75.8528 79.2644V96.3211C75.8404 100.575 74.1451 104.651 71.1372 107.659C68.1293 110.667 64.0532 112.362 59.7994 112.375C55.5456 112.362 51.4696 110.667 48.4617 107.659C45.4538 104.651 43.7585 100.575 43.746 96.3211V79.2644C43.7585 75.0106 45.4538 70.9345 48.4617 67.9266C51.4696 64.9187 55.5456 63.2234 59.7994 63.2109C64.0532 63.2234 68.1292 64.9188 71.1371 67.9267C74.145 70.9346 75.8404 75.0106 75.8528 79.2644Z" fill="url(#paint11_linear_2_608)" fill-opacity="0.25"/>
<path style="mix-blend-mode:overlay" fill-rule="evenodd" clip-rule="evenodd" d="M34.9165 57.9936L22.8764 45.9535C19.8877 42.937 18.2109 38.8623 18.2109 34.6158C18.2109 30.3694 19.8877 26.2947 22.8764 23.2781C25.893 20.2893 29.9677 18.6126 34.2142 18.6126C38.4607 18.6126 42.5354 20.2893 45.552 23.2781L57.5921 35.3182C60.5808 38.3348 62.2576 42.4095 62.2576 46.6559C62.2576 50.9024 60.5808 54.9771 57.5921 57.9936C56.1226 59.5168 54.3614 60.7283 52.4134 61.5557C50.4654 62.3831 48.3707 62.8096 46.2543 62.8096C44.1379 62.8096 42.0431 62.3831 40.0952 61.5557C38.1472 60.7283 36.3859 59.5168 34.9165 57.9936Z" fill="url(#paint12_linear_2_608)" fill-opacity="0.25"/>
<path style="mix-blend-mode:overlay" fill-rule="evenodd" clip-rule="evenodd" d="M84.4814 62.4082L96.5215 74.4483C99.5102 77.4649 101.187 81.5396 101.187 85.786C101.187 90.0325 99.5102 94.1072 96.5215 97.1237C93.5049 100.112 89.4301 101.789 85.1837 101.789C80.9372 101.789 76.8625 100.112 73.8459 97.1237L61.8058 85.0837C58.8171 82.0671 57.1403 77.9924 57.1403 73.7459C57.1403 69.4995 58.8171 65.4248 61.8058 62.4082C63.2752 60.885 65.0365 59.6735 66.9845 58.846C68.9324 58.0186 71.0272 57.5921 73.1436 57.5921C75.26 57.5921 77.3548 58.0186 79.3027 58.846C81.2507 59.6735 83.012 60.885 84.4814 62.4082Z" fill="url(#paint13_linear_2_608)" fill-opacity="0.25"/>
<path style="mix-blend-mode:overlay" fill-rule="evenodd" clip-rule="evenodd" d="M61.806 35.3181L73.8461 23.278C76.8627 20.2892 80.9374 18.6125 85.1839 18.6125C89.4304 18.6125 93.5051 20.2892 96.5217 23.278C99.5104 26.2946 101.187 30.3693 101.187 34.6157C101.187 38.8622 99.5104 42.9369 96.5217 45.9534L84.4816 57.9935C81.465 60.9823 77.3903 62.659 73.1438 62.659C68.8974 62.659 64.8227 60.9823 61.806 57.9935C58.8171 54.977 57.1402 50.9023 57.1402 46.6558C57.1402 42.4092 58.8171 38.3345 61.806 35.3181Z" fill="url(#paint14_linear_2_608)" fill-opacity="0.25"/>
<path style="mix-blend-mode:overlay" fill-rule="evenodd" clip-rule="evenodd" d="M57.5918 85.0838L45.5518 97.1239C42.5352 100.113 38.4604 101.789 34.214 101.789C29.9675 101.789 25.8928 100.113 22.8762 97.1239C19.8874 94.1073 18.2107 90.0326 18.2107 85.7861C18.2107 81.5397 19.8874 77.465 22.8762 74.4484L34.9163 62.4083C37.9329 59.4196 42.0076 57.7429 46.2541 57.7429C50.5005 57.7429 54.5752 59.4196 57.5918 62.4083C60.5807 65.4249 62.2575 69.4996 62.2575 73.7461C62.2575 77.9926 60.5807 82.0673 57.5918 85.0838Z" fill="url(#paint15_linear_2_608)" fill-opacity="0.25"/>
</g>
<g style="mix-blend-mode:darken">
<path fill-rule="evenodd" clip-rule="evenodd" d="M44.1472 44.5489C47.1498 45.1934 49.9023 46.6915 52.0738 48.863C54.2453 51.0345 55.7434 53.787 56.3879 56.7896C53.3708 56.1773 50.6008 54.6898 48.4239 52.5129C46.247 50.3359 44.7595 47.566 44.1472 44.5489Z" fill="#D783A6"/>
</g>
<g style="mix-blend-mode:darken">
<path fill-rule="evenodd" clip-rule="evenodd" d="M63.2106 63.6123C63.8551 66.6149 65.3532 69.3674 67.5247 71.539C69.6962 73.7105 72.4487 75.2086 75.4513 75.8531C74.8391 72.8359 73.3516 70.0659 71.1747 67.889C68.9977 65.712 66.2278 64.2246 63.2106 63.6123ZM63.2106 56.7896C63.8551 53.787 65.3532 51.0345 67.5247 48.863C69.6962 46.6914 72.4487 45.1934 75.4513 44.5489C74.8066 47.5514 73.3085 50.3038 71.137 52.4752C68.9655 54.6467 66.2131 56.1449 63.2106 56.7896ZM44.1472 75.8531C44.7917 72.8505 46.2897 70.0979 48.4612 67.9264C50.6327 65.7549 53.3853 64.2568 56.3879 63.6123C55.7431 66.6148 54.245 69.3672 52.0735 71.5387C49.9021 73.7102 47.1497 75.2083 44.1472 75.8531ZM37.5253 60.2009C40.1302 58.5304 43.1597 57.6424 46.2543 57.6424C49.3488 57.6424 52.3784 58.5304 54.9833 60.2009C52.3784 61.8716 49.3488 62.7596 46.2543 62.7596C43.1597 62.7596 40.1301 61.8716 37.5253 60.2009ZM64.6154 60.2009C67.2203 61.8715 70.2499 62.7595 73.3444 62.7595C76.439 62.7595 79.4685 61.8715 82.0734 60.2009C79.4686 58.5303 76.439 57.6423 73.3444 57.6423C70.2499 57.6423 67.2203 58.5303 64.6154 60.2009ZM59.7994 55.3849C58.1289 52.78 57.2409 49.7504 57.2409 46.6558C57.2409 43.5613 58.1289 40.5317 59.7994 37.9268C61.47 40.5317 62.358 43.5613 62.358 46.6558C62.358 49.7504 61.47 52.78 59.7994 55.3849ZM59.7994 82.4751C58.1289 79.8701 57.2409 76.8406 57.2409 73.746C57.2409 70.6515 58.1289 67.6219 59.7994 65.0169C61.47 67.6218 62.358 70.6514 62.358 73.746C62.358 76.8406 61.47 79.8702 59.7994 82.4751Z" fill="#D783A6"/>
</g>
</g>
<defs>
<linearGradient id="paint0_linear_2_608" x1="7.63251" y1="60.205" x2="56.7795" y2="60.205" gradientUnits="userSpaceOnUse">
<stop stop-color="white" stop-opacity="0"/>
<stop offset="1"/>
</linearGradient>
<linearGradient id="paint1_linear_2_608" x1="111.964" y1="60.205" x2="62.8175" y2="60.205" gradientUnits="userSpaceOnUse">
<stop stop-color="white" stop-opacity="0"/>
<stop offset="1"/>
</linearGradient>
<linearGradient id="paint2_linear_2_608" x1="-39737.1" y1="8.036" x2="-39737.1" y2="57.2075" gradientUnits="userSpaceOnUse">
<stop stop-color="white" stop-opacity="0"/>
<stop offset="1"/>
</linearGradient>
<linearGradient id="paint3_linear_2_608" x1="59.793" y1="112.383" x2="59.793" y2="63.212" gradientUnits="userSpaceOnUse">
<stop stop-color="white" stop-opacity="0"/>
<stop offset="1"/>
</linearGradient>
<linearGradient id="paint4_linear_2_608" x1="-17969.8" y1="-5953.42" x2="-17935.1" y2="-5988.19" gradientUnits="userSpaceOnUse">
<stop stop-color="white" stop-opacity="0"/>
<stop offset="1"/>
</linearGradient>
<linearGradient id="paint5_linear_2_608" x1="-8558.34" y1="41329.8" x2="-8593.11" y2="41364.5" gradientUnits="userSpaceOnUse">
<stop stop-color="white" stop-opacity="0"/>
<stop offset="1"/>
</linearGradient>
<linearGradient id="paint6_linear_2_608" x1="-38667.1" y1="24390.8" x2="-38701.8" y2="24356.1" gradientUnits="userSpaceOnUse">
<stop stop-color="white" stop-opacity="0"/>
<stop offset="1"/>
</linearGradient>
<linearGradient id="paint7_linear_2_608" x1="7718.38" y1="14961.4" x2="7753.16" y2="14995.1" gradientUnits="userSpaceOnUse">
<stop stop-color="white" stop-opacity="0"/>
<stop offset="1"/>
</linearGradient>
<linearGradient id="paint8_linear_2_608" x1="7.55901" y1="60.205" x2="56.7305" y2="60.205" gradientUnits="userSpaceOnUse">
<stop stop-color="white" stop-opacity="0"/>
<stop offset="1"/>
</linearGradient>
<linearGradient id="paint9_linear_2_608" x1="111.915" y1="60.205" x2="62.744" y2="60.205" gradientUnits="userSpaceOnUse">
<stop stop-color="white" stop-opacity="0"/>
<stop offset="1"/>
</linearGradient>
<linearGradient id="paint10_linear_2_608" x1="-39737.1" y1="8.036" x2="-39737.1" y2="57.2075" gradientUnits="userSpaceOnUse">
<stop stop-color="white" stop-opacity="0"/>
<stop offset="1"/>
</linearGradient>
<linearGradient id="paint11_linear_2_608" x1="59.793" y1="112.383" x2="59.793" y2="63.212" gradientUnits="userSpaceOnUse">
<stop stop-color="white" stop-opacity="0"/>
<stop offset="1"/>
</linearGradient>
<linearGradient id="paint12_linear_2_608" x1="-17969.8" y1="-5953.42" x2="-17935.1" y2="-5988.19" gradientUnits="userSpaceOnUse">
<stop stop-color="white" stop-opacity="0"/>
<stop offset="1"/>
</linearGradient>
<linearGradient id="paint13_linear_2_608" x1="-8558.29" y1="41329.9" x2="-8593.05" y2="41364.7" gradientUnits="userSpaceOnUse">
<stop stop-color="white" stop-opacity="0"/>
<stop offset="1"/>
</linearGradient>
<linearGradient id="paint14_linear_2_608" x1="-38667" y1="24390.7" x2="-38701.8" y2="24355.9" gradientUnits="userSpaceOnUse">
<stop stop-color="white" stop-opacity="0"/>
<stop offset="1"/>
</linearGradient>
<linearGradient id="paint15_linear_2_608" x1="7718.34" y1="14961.4" x2="7753.13" y2="14995.1" gradientUnits="userSpaceOnUse">
<stop stop-color="white" stop-opacity="0"/>
<stop offset="1"/>
</linearGradient>
<clipPath id="clip0_2_608">
<rect width="120" height="120" fill="white"/>
</clipPath>
</defs>
</svg>
